# xmcd
#
# Track frame offsets: 
#        150
#        10023
#        21282
#        32885
#        49569
#        63139
#        76031
#        85279
#        94941
#        109305
#        119374
#        129305
#
# Disc length: 1954 seconds
#
# Revision: 0
# Processed by: cddbd v1.5.2PL0 Copyright (c) Steve Scherf et al.
# Submitted via: ExactAudioCopy v1.3
#
DISCID=8c07a00c
DTITLE=Dana Gillespie - Foolish Seasons
DYEAR=1967
DGENRE=Folk, Blues
TTITLE0=You Just Gotta Know My Mind
TTITLE1=Tears in My Eyes
TTITLE2=Life is Short
TTITLE3=Souvenirs of Stefan
TTITLE4=Can't You See I'm Dreaming
TTITLE5=No! No! No!
TTITLE6=He Loves Me, He Loves Me Not
TTITLE7=London Social Degree
TTITLE8=Dead
TTITLE9=Foolish Seasons
TTITLE10=Where Will You Be
TTITLE11=Hard Lovin' Loser
EXTD=
EXTT0=
EXTT1=
EXTT2=
EXTT3=
EXTT4=
EXTT5=
EXTT6=
EXTT7=
EXTT8=
EXTT9=
EXTT10=
EXTT11=
PLAYORDER=
